<svg width="1280" height="720" xmlns="http://www.w3.org/2000/svg" xmlns:xlink="http://www.w3.org/1999/xlink" overflow="hidden"><defs><linearGradient x1="10.7239" y1="57.7737" x2="43.8073" y2="0.471689" gradientUnits="userSpaceOnUse" spreadMethod="pad" id="fill0"><stop offset="0" stop-color="#CD163F"/><stop offset="0.28" stop-color="#CD163F"/><stop offset="0.9" stop-color="#F58025"/><stop offset="1" stop-color="#F58025"/></linearGradient></defs><g><rect x="0" y="0" width="1280" height="720" fill="#2F2D2F"/><g><g><g><path d="M146.125 39.7091C140 39.7091 136.341 42.9227 136.341 48.3159 136.341 53.6773 140 56.8909 146.125 56.8909 152.266 56.8909 155.941 53.6932 155.941 48.3159 155.941 42.9227 152.266 39.7091 146.125 39.7091L146.125 39.7091ZM146.125 52.1182C144.327 52.1182 143.118 50.575 143.118 48.2682 143.118 45.9455 144.327 44.4023 146.125 44.4023 147.955 44.4023 149.132 45.9295 149.132 48.2682 149.132 50.6545 147.986 52.1182 146.125 52.1182L146.125 52.1182ZM223.427 54.1068C223.427 55.4273 224.477 56.4932 225.782 56.4932L230.364 56.4932 230.364 40.1227 223.427 40.1227 223.427 54.1068 223.427 54.1068ZM223.427 34.7455 230.364 34.7455 230.364 38.1341 223.427 38.1341 223.427 34.7455ZM242.916 39.7091C236.791 39.7091 233.132 42.9227 233.132 48.3159 233.132 53.6773 236.791 56.8909 242.916 56.8909 249.057 56.8909 252.732 53.6932 252.732 48.3159 252.732 42.9227 249.057 39.7091 242.916 39.7091L242.916 39.7091ZM242.916 52.1182C241.118 52.1182 239.909 50.575 239.909 48.2682 239.909 45.9455 241.118 44.4023 242.916 44.4023 244.745 44.4023 245.923 45.9295 245.923 48.2682 245.939 50.6545 244.777 52.1182 242.916 52.1182L242.916 52.1182ZM113.161 13.7295C107.036 13.7295 103.377 16.9432 103.377 22.3364 103.377 27.6977 107.036 30.9114 113.161 30.9114 119.302 30.9114 122.977 27.7136 122.977 22.3364 122.977 16.9432 119.318 13.7295 113.161 13.7295L113.161 13.7295ZM113.161 26.1545C111.364 26.1545 110.155 24.6114 110.155 22.3045 110.155 19.9818 111.364 18.4386 113.161 18.4386 114.991 18.4386 116.168 19.9659 116.168 22.3045 116.184 24.675 115.023 26.1545 113.161 26.1545ZM210.111 26.3295C209.364 26.3455 206.261 26.5045 203.525 26.5045 200.709 26.5045 199.723 26.2182 199.166 24.4045L210.27 24.4045C210.557 24.4045 210.795 24.1659 210.795 23.8795L210.795 22.6068C210.795 16.975 207.805 13.8091 202.077 13.7295 195.682 13.65 192.691 17.0068 192.691 22.0659 192.691 27.6182 195.618 30.9432 202.602 30.9432 207.598 30.9432 209.857 28.9068 210.302 26.5682 210.302 26.4727 210.207 26.3295 210.111 26.3295L210.111 26.3295ZM202.109 17.5318C203.955 17.5318 204.782 19.0432 204.782 20.9205L199.086 20.9205C199.086 19.0273 199.723 17.5318 202.109 17.5318L202.109 17.5318ZM220.118 8.78182 215.6 8.78182C214.295 8.78182 213.245 9.84773 213.245 11.1682L213.245 30.5136 220.118 30.5136 220.118 8.78182 220.118 8.78182ZM132.825 30.7841C135.53 31.0386 138.568 30.4818 139.73 30.2432 140.016 30.1795 140.207 29.9409 140.207 29.6386L140.207 25.6455C140.207 25.6455 138.934 25.7886 135.911 25.7886 133.302 25.7886 131.664 24.4364 131.664 22.2568 131.664 20.0614 133.191 18.7091 135.657 18.7091 138.505 18.7091 140.191 19.0591 140.191 19.0591L140.191 15.0182C140.191 14.7318 140 14.4773 139.714 14.4136 138.568 14.1591 135.561 13.5864 133.191 13.7295 128.1 14.0318 124.934 17.0068 124.934 22.2886 124.934 27.3 127.925 30.3386 132.825 30.7841L132.825 30.7841ZM201.218 40.0591 201.218 42.175C200.232 40.6636 198.72 39.6614 196.461 39.6614 191.275 39.6614 188.348 42.875 188.348 48.2364L188.348 48.3C188.348 53.6614 191.275 56.875 196.461 56.875 198.736 56.875 200.232 55.8727 201.218 54.3614L201.218 54.7273C201.218 55.6977 201.998 56.4932 202.952 56.4932L207.757 56.4932 207.757 40.0591 201.218 40.0591 201.218 40.0591ZM198.195 52.1182C196.398 52.1182 195.189 50.575 195.189 48.2682 195.189 45.9773 196.398 44.4182 198.195 44.4182 200.057 44.4182 201.202 45.8977 201.202 48.2682 201.218 50.6386 200.057 52.1182 198.195 52.1182ZM185.277 14.1432 183.336 24.85 181.173 14.1432 173.361 14.1432 171.198 24.85 169.257 14.1432 162.75 14.1432 162.75 14.1432 155.973 14.0955C154.955 14.0955 153.968 14.7159 153.427 15.7023L149.577 21.3023 149.577 8.71818 145.377 8.71818C144.073 8.71818 143.023 9.78409 143.023 11.1045L143.023 30.45 149.577 30.45 149.577 22.3045 154.064 28.8432C154.605 29.8295 155.591 30.45 156.609 30.45L163.402 30.4977 156.768 21.7477 162.75 14.1432 166.664 30.4977 173.982 30.4977C174.793 30.4977 175.477 29.9091 175.62 29.0818L177.02 19.3773 177.561 19.3773 178.961 29.0818C179.105 29.8932 179.789 30.4977 180.6 30.4977L187.918 30.4977 191.832 14.1273 185.277 14.1432 185.277 14.1432ZM114.8 47.2023C114.8 50.0023 113.909 51.4341 112.127 51.4341 111.03 51.4341 109.9 51.0682 109.9 48.3636L109.9 40.1227 103.345 40.1227 103.345 49.4614C103.345 54.1705 105.7 56.7477 109.964 56.7477 112.111 56.7477 113.957 55.9841 115.309 54.5841L115.309 54.7114C115.309 55.6818 116.089 56.4773 117.043 56.4773L121.355 56.4773 121.355 40.1227 114.8 40.1227 114.8 47.2023 114.8 47.2023ZM180.107 39.7409C177.832 39.7409 175.859 40.7114 174.491 42.5091 173.361 40.7273 171.5 39.7409 169.13 39.7409 167.141 39.7409 165.359 40.5045 164.039 41.8886L164.039 40.1227 158.057 40.1227 158.057 56.4932 164.548 56.4932 164.548 48.6023C164.548 46.4864 165.502 45.1182 166.998 45.1182 168.064 45.1182 169.034 45.4841 169.034 48.0932L169.034 56.4932 175.557 56.4932 175.557 48.6023C175.557 46.4545 176.48 45.1182 177.975 45.1182 179.041 45.1182 180.011 45.4841 180.011 48.0932L180.011 56.4932 186.502 56.4932 186.502 46.9955C186.502 42.3182 184.227 39.7409 180.107 39.7409ZM266.239 39.7091C264.091 39.7091 262.245 40.4727 260.893 41.8886L260.893 40.1227 254.848 40.1227 254.848 56.4932 261.402 56.4932 261.402 48.6023C261.402 46.4386 262.452 45.0227 264.075 45.0227 265.173 45.0227 266.302 45.3886 266.302 48.0932L266.302 56.4932 272.825 56.4932 272.825 46.9955C272.825 42.2864 270.486 39.7091 266.239 39.7091L266.239 39.7091ZM217.08 34.7455 210.525 34.7455 210.525 54.0909C210.525 55.4114 211.575 56.4773 212.88 56.4773L217.08 56.4773 217.08 44.9273 221.041 44.9273 221.041 40.1068 217.08 40.1068 217.08 34.7455 217.08 34.7455ZM230.284 8.78182 225.766 8.78182C224.461 8.78182 223.411 9.84773 223.411 11.1682L223.411 30.5136 230.284 30.5136 230.284 8.78182 230.284 8.78182ZM87.6273 34.7455C86.9273 34.7455 86.2909 35.175 86.0364 35.8273L77.7795 56.4932 84.6364 56.4932 86.1636 52.3886 94.0545 52.3886 94.8977 54.7591 94.8977 54.7591C95.3591 55.7932 96.3773 56.4773 97.475 56.4773L102.852 56.4773 94.1659 34.7295 87.6273 34.7455 87.6273 34.7455ZM87.9295 47.5364 90.1886 41.3955 92.3523 47.5364 87.9295 47.5364ZM131.25 34.7614 124.298 34.7614 124.298 54.1068C124.298 55.4273 125.348 56.4932 126.652 56.4932L131.25 56.4932 131.25 44.9432 135.211 44.9432 135.211 40.1227 131.25 40.1227 131.25 34.7614 131.25 34.7614ZM100.211 22.1455C99.5114 21.2545 98.5727 20.6023 97.1568 20.3477L97.1568 20.2841C100.195 19.9182 102.009 17.85 102.009 14.5091 102.009 10.325 99.0182 8.70227 94.1659 8.70227L82.425 8.70227 82.425 30.4818 89.3614 30.4818 89.3614 22.5591 91.2705 22.5591C92.225 22.5591 93.1954 22.7182 93.4659 23.6886L95.4227 29.3841C95.5341 30.0205 96.075 30.4818 96.6954 30.4818L103.107 30.4818 100.705 23.2114C100.625 22.8136 100.45 22.4636 100.211 22.1455L100.211 22.1455ZM92.2091 18.0091 89.4727 18.0091 89.4727 13.3955 92.3204 13.3955C93.7364 13.3955 95.0886 13.6818 95.0886 15.6386 95.0727 17.8182 93.6568 18.0091 92.2091 18.0091L92.2091 18.0091Z" fill="#CD163F" transform="matrix(1.00425 0 0 1 18.008 90)"/><path d="M17.9295 19.5205 43.1455 0.843182C43.5114 0.572727 43.3205 0 42.875 0L22.1932 0C19.8068 0 17.5 0.954545 15.8136 2.64091L2.64091 15.7977C0.954545 17.5 0 19.7909 0 22.1932L0 40.8068C0 43.2091 0.954545 45.5 2.64091 47.2023L15.7977 60.3591C17.5 62.0455 19.8068 63 22.1932 63L40.0909 63C40.5841 63 40.7432 62.3318 40.2818 62.1091L4.725 45.3409C3.24545 44.6409 2.29091 43.1455 2.29091 41.5068L2.29091 32.5818C2.29091 31.6432 2.73636 30.7682 3.48409 30.2114L8.60682 26.4091 8.60682 19.5045 17.9295 19.5045Z" fill="url(#fill0)" transform="matrix(1.00425 0 0 1 18.008 90)"/><path d="M42.4455 26.7114 40.0114 33.3295 44.7682 33.3295 42.4455 26.7114ZM21.9864 26.9818C21.9864 24.8659 20.5386 24.5636 19.0114 24.5636L15.9409 24.5636 15.9409 29.5591 18.9 29.5591C20.4591 29.5432 21.9864 29.3364 21.9864 26.9818L21.9864 26.9818Z" fill="#CD163F" transform="matrix(1.00425 0 0 1 18.008 90)"/><path d="M60.7091 16.1636 48.4591 3.91364C47.775 3.22955 46.6932 3.13409 45.8818 3.69091L22.3045 19.5682C26.775 19.8545 29.4795 21.6523 29.4795 25.7886 29.4795 29.3841 27.5386 31.6273 24.2455 32.025L24.2455 32.0886C25.7727 32.375 26.7909 33.075 27.5386 34.0295 27.8091 34.3636 27.9841 34.7614 28.0795 35.1591L29.9409 40.8068 37.9591 20.7295C38.2455 20.0295 38.9295 19.5682 39.6773 19.5682L46.725 19.5682 56.0955 43.0182 50.3045 43.0182C49.1273 43.0182 48.0295 42.2705 47.5364 41.1568L47.5364 41.1568 46.6295 38.5955 38.1182 38.5955 36.4636 43.0182 23.7523 43.0182C23.0682 43.0182 22.4955 42.525 22.3841 41.825L20.2682 35.6841C19.9818 34.6341 18.9318 34.4591 17.8977 34.4591L15.8455 34.4591 15.8455 43.0023 8.60682 43.0023 8.60682 28.7795 4.27955 31.6909C3.88182 31.9614 3.65909 32.4068 3.65909 32.8841L3.65909 41.9364C3.65909 42.525 4.00909 43.05 4.53409 43.2727L45.3409 60.3591C46.1045 60.6932 46.9795 60.5182 47.5682 59.9454L60.7091 46.8523C62.1886 45.3886 63.0159 43.3841 63.0159 41.3L63.0159 21.7C63.0159 19.6159 62.1886 17.6273 60.7091 16.1636L60.7091 16.1636Z" fill="#CD163F" transform="matrix(1.00425 0 0 1 18.008 90)"/></g></g></g></g></svg>